<?xml version="1.0" encoding="UTF-8"?>
<svg width="200px" height="200px" viewBox="0 0 200 200" version="1.1" xmlns="http://www.w3.org/2000/svg" xmlns:xlink="http://www.w3.org/1999/xlink">
    <title>logo-creative-tim-white</title>
    <defs>
        <filter id="filter-1">
            <feColorMatrix in="SourceGraphic" type="matrix" values="0 0 0 0 1.000000 0 0 0 0 1.000000 0 0 0 0 1.000000 0 0 0 1.000000 0"></feColorMatrix>
        </filter>
        <filter id="filter-2">
            <feColorMatrix in="SourceGraphic" type="matrix" values="0 0 0 0 1.000000 0 0 0 0 1.000000 0 0 0 0 1.000000 0 0 0 1.000000 0"></feColorMatrix>
        </filter>
    </defs>
    <g id="logo-creative-tim-white" stroke="none" stroke-width="1" fill="none" fill-rule="evenodd">
        <g filter="url(#filter-1)" id="Group">
            <g transform="translate(14.000000, 139.000000)">
                <g id="c" transform="translate(0.000000, 0.000000)" fill="#1C1C1C" fill-rule="nonzero">
                    <path d="M4.91471602,19.6023431 C3.41863308,18.7934164 2.1711341,17.580529 1.30955926,16.0972104 C-0.436519754,12.9666526 -0.436519754,9.13382359 1.30955926,6.00326586 C2.17400381,4.52159702 3.42072272,3.30856273 4.91471602,2.49551544 C6.49792024,1.63587054 8.27026276,1.19986622 10.06494,1.22853693 C11.5089482,1.21032132 12.9417606,1.48809328 14.2778232,2.04526688 C15.2681869,2.4663972 16.1735058,3.06987253 16.9482143,3.82531933 C17.0994203,3.97607949 17.1831063,4.18333467 17.1796985,4.39860846 C17.1762908,4.61388224 17.086088,4.81829291 16.9301885,4.96402936 L15.7868388,6.05562035 C15.489452,6.3398601 15.0258546,6.3398601 14.7284678,6.05562035 C13.4985536,4.91801427 11.8871526,4.3017493 10.2245969,4.33315783 C9.01756155,4.31253943 7.82564021,4.60823849 6.76364642,5.19177136 C5.7632516,5.74489457 4.93537636,6.57195935 4.37394251,7.57913583 C3.23216447,9.7430261 3.23216447,12.3443615 4.37394251,14.5082518 C4.93537636,15.5154283 5.7632516,16.342493 6.76364642,16.8956162 C7.82564021,17.4791491 9.01756155,17.7748482 10.2245969,17.7542298 C11.8890191,17.7844492 13.5009745,17.1619949 14.7258926,16.0160609 C15.0239781,15.7285244 15.4913284,15.7285244 15.7894139,16.0160609 L16.9353387,17.125976 C17.0892623,17.2719287 17.1779349,17.4754093 17.1809257,17.6893638 C17.1837679,17.9033182 17.1006756,18.1092183 16.9507894,18.2594505 C16.1721075,19.0179775 15.2613082,19.6225011 14.2649476,20.0421207 C12.9235241,20.5997199 11.4857579,20.8783238 10.0366137,20.8614684 C8.25221681,20.8872131 6.49036262,20.4540933 4.91471602,19.6023431 Z" id="Path"></path>
                    <path d="M29.4530154,6.92960066 L29.4530154,8.48469957 C29.4530154,8.91919741 29.0940986,9.27142751 28.6513896,9.27142751 L28.6513896,9.27142751 C27.2958024,9.27142751 26.2376963,9.65867249 25.4770711,10.4331624 C24.716446,11.2076524 24.3361334,12.3239319 24.3361334,13.7820011 L24.3361334,20.0758246 C24.3361334,20.5103225 23.9772469,20.8625526 23.5345379,20.8625526 L21.6641482,20.8625526 C21.2214392,20.8625526 20.8625526,20.5103225 20.8625526,20.0758246 L20.8625526,7.06334441 C20.8625526,6.62884656 21.2214392,6.27661646 21.6641482,6.27661646 L23.3635308,6.27661646 C23.8062398,6.27661646 24.1651264,6.62884656 24.1651264,7.06334441 L24.1651264,8.40340435 C25.0557881,7.05372885 26.5342866,6.29847002 28.6006219,6.13762786 C28.8228013,6.12378145 29.0408405,6.20124361 29.2025104,6.35145904 C29.3641802,6.50167447 29.4549169,6.71111118 29.4530154,6.92960066 L29.4530154,6.92960066 Z" id="Path"></path>
                    <path d="M44.6390316,14.5652714 L34.0710918,14.5652714 C34.239883,15.5739778 34.7970731,16.4768398 35.6236784,17.0810582 C36.5290325,17.721588 37.6197788,18.0482173 38.7288517,18.0109177 C39.9410837,18.0413673 41.12755,17.6587438 42.0927895,16.9260816 C42.4216521,16.6820701 42.8838827,16.7352205 43.1485484,17.0474799 L43.9688317,17.9876712 C44.2417585,18.2975488 44.2235557,18.7665548 43.9274294,19.0544268 C43.3602358,19.5784967 42.6992096,19.9912161 41.9789331,20.2709931 C39.5261687,21.1667242 36.8156917,21.0410793 34.4566508,19.9222958 C33.2928279,19.3320959 32.3236147,18.4202339 31.6645824,17.2954424 C30.9985198,16.1382249 30.6587328,14.8226034 30.6812776,13.4881841 C30.6614311,12.1647435 30.9916844,10.8594946 31.638706,9.70417216 C32.2596228,8.59820352 33.1796194,7.68882882 34.2936292,7.07990179 C35.4675895,6.44175256 36.7867447,6.11701141 38.1233429,6.1371275 C39.4371938,6.11489545 40.7340986,6.43541641 41.8857779,7.06698707 C42.9792905,7.67445046 43.8768522,8.58023677 44.4734224,9.67834273 C45.1127917,10.87386 45.4335724,12.2133546 45.4049744,13.5682553 C45.4049744,13.6405777 45.4049744,13.720649 45.4049744,13.811052 C45.3938951,14.2269364 45.0557852,14.5598713 44.6390316,14.5652714 Z M35.4063163,9.78682634 C34.6530551,10.4366327 34.1680676,11.3422615 34.0452153,12.3284425 L42.2169964,12.3284425 C41.9903081,10.2758062 40.2112021,8.74814865 38.1440441,8.83113733 C37.1447141,8.80237587 36.1698873,9.14266947 35.4063163,9.78682634 L35.4063163,9.78682634 Z" id="Shape"></path>
                    <path d="M59.6218526,7.65979571 C60.7809167,8.67546734 61.3604488,10.205 61.3604488,12.2483936 L61.3604488,19.891753 C61.3604488,20.3195885 61.001741,20.6664178 60.5592524,20.6664178 L58.8794106,20.6664178 C58.436922,20.6664178 58.0782142,20.3195885 58.0782142,19.891753 L58.0782142,18.923422 C57.631526,19.5674595 56.9964885,20.0681953 56.254157,20.3617163 C55.3489728,20.7157434 54.377982,20.8854021 53.4018978,20.860084 C52.3984938,20.881232 51.402105,20.6936609 50.4802015,20.310072 C49.6998735,19.9839079 49.0299331,19.4524622 48.5466475,18.7762357 C48.0905191,18.1204349 47.8520205,17.3457607 47.8629599,16.5555299 C47.8252763,15.3529679 48.3778544,14.2039798 49.3531852,13.4568707 C50.3448884,12.6770414 51.9081116,12.2871268 54.0428549,12.2871268 L57.8832564,12.2871268 L57.8832564,12.0702207 C57.8832564,11.0648779 57.5725702,10.2902131 56.9511979,9.74622625 C56.3298256,9.20223941 55.4066692,8.93282821 54.181729,8.93799264 C53.3456306,8.93866481 52.5147936,9.06587228 51.7193853,9.31499618 C51.2540818,9.45976913 50.8063624,9.6528395 50.384058,9.89083035 C50.1958761,10.0029744 49.9681355,10.034961 49.7547311,9.97922056 C49.5413267,9.92348009 49.361223,9.784966 49.2570417,9.59645772 L48.666827,8.53516694 C48.458282,8.17689705 48.5755102,7.72351206 48.9338924,7.50228053 C49.6191559,7.10775937 50.3555721,6.80297586 51.1238293,6.59592271 C52.2530543,6.2858656 53.4218176,6.13113436 54.5956804,6.13616364 C56.7856173,6.13616364 58.461008,6.64412408 59.6218526,7.65979571 Z M56.4464441,17.8337268 C57.1113812,17.4627462 57.6193344,16.876497 57.8805857,16.1785263 L57.8805857,14.5104148 L54.2912258,14.5104148 C52.2846739,14.5104148 51.2822882,15.1473614 51.2840686,16.4212547 C51.2658402,16.9968571 51.5490304,17.5425398 52.0371932,17.8724601 C52.5366057,18.2339703 53.2336465,18.4121432 54.1229745,18.4121432 C54.9373782,18.4265849 55.7405168,18.2266474 56.4464441,17.8337268 L56.4464441,17.8337268 Z" id="Shape"></path>
                    <path d="M73.5790488,19.3551915 C73.7186789,19.7092939 73.5767086,20.11436 73.2490952,20.2966068 C72.9896411,20.437109 72.7158842,20.5479415 72.4327656,20.6271037 C71.8817314,20.7864632 71.3115668,20.8656895 70.7390039,20.8625526 C69.2448437,20.8625526 68.0904135,20.4626899 67.2757133,19.6631545 C66.461013,18.8636191 66.0536629,17.6951957 66.0536629,16.1578844 L66.0536629,9.46031494 L64.548097,9.46031494 C64.1431451,9.46031494 63.8148668,9.1240229 63.8148668,8.70918565 L63.8148668,7.61253688 C63.8148668,7.19769963 64.1431451,6.86140759 64.548097,6.86140759 L66.0585511,6.86140759 L66.0585511,4.43275622 C66.0585511,4.01791897 66.3868295,3.68162693 66.7917813,3.68162693 L68.5026518,3.68162693 C68.9076036,3.68162693 69.235882,4.01791897 69.235882,4.43275622 L69.235882,6.86140759 L72.1419176,6.86140759 C72.5468695,6.86140759 72.8751478,7.19769963 72.8751478,7.61253688 L72.8751478,8.70918565 C72.8751478,9.1240229 72.5468695,9.46031494 72.1419176,9.46031494 L69.235882,9.46031494 L69.235882,16.1002979 C69.235882,16.7779834 69.398822,17.295428 69.7247021,17.6526317 C70.0951866,18.0298805 70.6064739,18.225153 71.1276159,18.1884373 C71.5204298,18.1934922 71.9107528,18.123879 72.2787873,17.9831286 C72.653934,17.8402034 73.0716523,18.0318738 73.2173219,18.4137761 L73.5790488,19.3551915 Z" id="Path"></path>
                    <path d="M78.1637863,6.13604488 L80.1461906,6.13604488 C80.6154127,6.13604488 80.9957924,6.49173354 80.9957924,6.93049773 L80.9957924,20.0680997 C80.9957924,20.5068639 80.6154127,20.8625526 80.1461906,20.8625526 L78.1637863,20.8625526 C77.6945641,20.8625526 77.3141655,20.5068639 77.3141655,20.0680997 L77.3141655,6.93579409 C77.3126756,6.72417592 77.4015205,6.52074042 77.5610156,6.37060415 C77.7205107,6.22046787 77.937473,6.13604488 78.1637863,6.13604488 Z" id="Path"></path>
                    <path d="M98.1120649,7.2502487 L92.7131875,20.3782759 C92.5934696,20.6733939 92.3155226,20.8644121 92.0085453,20.8625526 L89.610734,20.8625526 C89.3046771,20.8633432 89.0279881,20.6725031 88.9086265,20.3782759 L83.5148184,7.2502487 C83.4107039,7.00366989 83.4335081,6.71878712 83.5753808,6.4936705 C83.7172535,6.26855389 83.9588216,6.13394368 84.216926,6.13604488 L85.9912049,6.13604488 C86.3003323,6.13411951 86.5798869,6.32764608 86.6983818,6.62573461 L90.8856802,17.057237 L95.1946434,6.61779587 C95.3147844,6.32460555 95.591304,6.13492452 95.8967509,6.13604488 L97.4023533,6.13604488 C97.6618007,6.13120662 97.9057652,6.26470475 98.049468,6.49028215 C98.1931707,6.71585955 98.21677,7.00236967 98.1120649,7.2502487 Z" id="Path"></path>
                    <rect id="Rectangle" x="77.3141655" y="0" width="3.68162693" height="3.68162693" rx="0.9"></rect>
                    <path d="M113.365087,14.5653216 L102.79528,14.5653216 C102.96252,15.574629 103.520149,16.4780522 104.348141,17.0811326 C105.25374,17.7214952 106.344619,18.0481099 107.453863,18.0110011 C108.666339,18.041658 109.853082,17.6590092 110.818395,16.9261545 C111.147782,16.6804902 111.611964,16.7337255 111.876929,17.047554 L112.694769,17.9877544 C112.968433,18.2969602 112.951366,18.7659423 112.655947,19.0545203 C112.087832,19.5775226 111.426903,19.9901123 110.707107,20.2710983 C108.253004,21.166684 105.541316,21.0410472 103.180907,19.9223976 C102.017386,19.3314721 101.048184,18.419773 100.388346,17.2955189 C99.7233657,16.1378025 99.3836053,14.8225039 99.4048671,13.4882239 C99.3850171,12.1647706 99.7153288,10.8595091 100.362465,9.70417553 C100.985197,8.59860834 101.906039,7.68943605 103.020445,7.07987988 C104.194613,6.4417245 105.514001,6.11698022 106.850835,6.1370965 C108.164058,6.1151956 109.460273,6.43571298 110.611347,7.06696503 C111.704791,7.67477823 112.602426,8.5804867 113.199449,9.67834584 C113.838032,10.874115 114.157975,12.2136092 114.128577,13.5682959 C114.128577,13.640619 114.128577,13.720691 114.128577,13.8110949 C114.117542,14.2259981 113.780906,14.5585502 113.365087,14.5653216 L113.365087,14.5653216 Z M104.130741,9.78683051 C103.37658,10.436377 102.8906,11.3419869 102.766811,12.3284712 L110.940036,12.3284712 C110.828993,11.3515209 110.358656,10.4504496 109.620104,9.79974535 C108.017686,8.51708754 105.7392,8.51172694 104.130741,9.78683051 L104.130741,9.78683051 Z" id="Shape"></path>
                </g>
                <g id="t" transform="translate(123.007246, 0.000000)" fill="#1C1C1C" fill-rule="nonzero">
                    <path d="M6.27539056,4.72732236 L0.77922896,4.72732236 C0.348872689,4.72732236 0,4.37844967 0,3.9480934 L0,2.53768898 C0,2.10733271 0.348872689,1.75846002 0.77922896,1.75846002 L15.2910696,1.75846002 C15.7214259,1.75846002 16.0702986,2.10733271 16.0702986,2.53768898 L16.0702986,3.9480934 C16.0702986,4.37844967 15.7214259,4.72732236 15.2910696,4.72732236 L9.7845183,4.72732236 L9.7845183,19.9144948 C9.7845183,20.3448511 9.43564562,20.6937237 9.00528934,20.6937237 L7.05461952,20.6937237 C6.62426324,20.6937237 6.27539056,20.3448511 6.27539056,19.9144948 L6.27539056,4.72732236 Z" id="Path"></path>
                    <path d="M50.3953343,7.66501553 C51.4602805,8.7230353 51.9927536,10.3066017 51.9927536,12.4157148 L51.9927536,19.9170922 C51.9927536,20.3474485 51.6438809,20.6963212 51.2135247,20.6963212 L49.3953238,20.6963212 C48.9649675,20.6963212 48.6160948,20.3474485 48.6160948,19.9170922 L48.6160948,12.8494855 C48.6160948,11.5871346 48.3364382,10.6347437 47.777125,9.99231269 C47.2178117,9.34988171 46.4143401,9.02953202 45.36671,9.03126364 C44.3348144,8.98746846 43.3354384,9.39746887 42.6316164,10.1533533 C41.9389684,10.9031448 41.5926444,11.9724201 41.5926444,13.3611792 L41.5926444,19.9144948 C41.5926444,20.3448511 41.2437718,20.6937237 40.8134155,20.6937237 L38.9952146,20.6937237 C38.5648583,20.6937237 38.2159856,20.3448511 38.2159856,19.9144948 L38.2159856,12.8494855 C38.2159856,11.5871346 37.9354632,10.6347437 37.3744183,9.99231269 C36.8133735,9.34988171 36.0107677,9.02953202 34.9666009,9.03126364 C33.8116104,9.03126364 32.8955834,9.40096449 32.2185201,10.1403662 C31.5414567,10.8797679 31.202925,11.9533722 31.202925,13.3611792 L31.202925,19.9144948 C31.202925,20.3448511 30.8540523,20.6937237 30.423696,20.6937237 L28.6054951,20.6937237 C28.1751388,20.6937237 27.8262662,20.3448511 27.8262662,19.9144948 L27.8262662,7.02864522 C27.8262662,6.59828895 28.1751388,6.24941626 28.6054951,6.24941626 L30.2600579,6.24941626 C30.6904142,6.24941626 31.0392869,6.59828895 31.0392869,7.02864522 L31.0392869,8.08579917 C31.5851951,7.4329612 32.2812868,6.92225624 33.0678796,6.59747186 C33.9267383,6.24369427 34.8481953,6.06700069 35.776999,6.07798589 C36.7716823,6.05955804 37.7575498,6.26738957 38.6601461,6.68578447 C39.4843763,7.07941082 40.1758434,7.7049809 40.6497774,8.48580337 C41.2595975,7.71619403 42.0489062,7.10793582 42.9485028,6.7143562 C43.9295588,6.28035562 44.9927532,6.06328677 46.0654187,6.07798589 C47.8888144,6.08144913 49.3321196,6.61045901 50.3953343,7.66501553 Z" id="Path"></path>
                    <path d="M20.2391735,6.28578028 L22.0573744,6.28578028 C22.4877307,6.28578028 22.8366034,6.63465296 22.8366034,7.06500923 L22.8366034,19.9534562 C22.8366034,20.3838125 22.4877307,20.7326852 22.0573744,20.7326852 L20.2391735,20.7326852 C19.8088172,20.7326852 19.4599446,20.3838125 19.4599446,19.9534562 L19.4599446,7.06500923 C19.4599446,6.63465296 19.8088172,6.28578028 20.2391735,6.28578028 Z" id="Path"></path>
                    <rect id="Rectangle" x="19.4547497" y="0" width="3.38445112" height="3.38445112" rx="0.9"></rect>
                </g>
            </g>
        </g>
        <g filter="url(#filter-2)" id="icon">
            <g transform="translate(62.000000, 43.000000)">
                <path d="M72.1290751,0 L3.8756629,0 C1.73519338,0 0,1.73508521 0,3.8754213 L0,36.3729871 C0,38.5133232 1.73519338,40.2484084 3.8756629,40.2484084 L17.8792821,40.2484084 L17.8792821,72.1245787 C17.8780229,73.1519679 18.2852948,74.137709 19.0113695,74.8646282 C19.7374442,75.5915473 20.7227472,76 21.7502012,76 L54.249793,76 C56.3902625,76 58.1254559,74.2649148 58.1254559,72.1245787 L58.1254559,40.2626389 L72.1290751,40.2626389 C73.1565291,40.2626396 74.1418321,39.8541862 74.8679068,39.127267 C75.5939814,38.4003479 76.0012533,37.4146068 76,36.3872176 L76,3.8754213 C76.0012533,2.84803209 75.5939814,1.862291 74.8679068,1.13537184 C74.1418321,0.408452692 73.1565291,0 72.1290751,0 Z M4.49235344,4.49681688 L35.7538204,4.49681688 L35.7538204,35.756335 L4.49235344,35.756335 L4.49235344,4.49681688 Z M53.6331024,71.5079266 L22.3716355,71.5079266 L22.3716355,40.2626389 L53.6331024,40.2626389 L53.6331024,71.5079266 Z M71.5076407,35.756335 L40.2461738,35.756335 L40.2461738,4.49681688 L71.5076407,4.49681688 L71.5076407,35.756335 Z" id="Shape" fill="#1C1C1C" fill-rule="nonzero"></path>
                <path d="M26.1867811,25.2731335 C27.0781188,26.1238461 28.4725457,26.1013523 29.3369044,25.2223182 C30.2012631,24.3432842 30.2233813,22.9251822 29.3868713,22.0187111 L22.160399,14.6695452 C21.2743003,13.7768183 19.8464076,13.7768183 18.9603088,14.6695452 L11.7147315,22.0187111 C11.1124611,22.5935314 10.8658025,23.4562954 11.0711286,24.269909 C11.2764548,25.0835226 11.9011769,25.7188515 12.7012073,25.9276637 C13.5012377,26.136476 14.349598,25.8856295 14.9148217,25.2731335 L20.5412489,19.5511789 L26.1867811,25.2731335 Z" id="Path" fill="#1C1C1C" fill-rule="nonzero"></path>
                <path d="M49.8375993,25.3710457 L55.5,19.5993933 L61.1624007,25.3710457 C62.0594373,26.2291471 63.4627797,26.2064579 64.3326648,25.3197891 C65.2025499,24.4331202 65.2248095,23.0027014 64.3829512,22.0883572 L57.1102752,14.6753605 C56.2185111,13.7748798 54.7814889,13.7748798 53.8897248,14.6753605 L46.6170488,22.0883572 C45.7751905,23.0027014 45.7974501,24.4331202 46.6673352,25.3197891 C47.5372203,26.2064579 48.9405627,26.2291471 49.8375993,25.3710457 L49.8375993,25.3710457 Z" id="Path" fill="#1C1C1C" fill-rule="nonzero"></path>
                <path d="M32.82429,50.676031 C31.9285545,49.8232429 30.5291869,49.8479268 29.6630447,50.7317932 C28.7969025,51.6156597 28.7768186,53.0394743 29.6176741,53.9482655 L36.8697067,61.3217655 C37.2950896,61.7559563 37.8728573,62 38.4754112,62 C39.0779651,62 39.6557328,61.7559563 40.0811157,61.3217655 L47.3331483,53.9482655 C47.9076675,53.3646082 48.1324995,52.5134445 47.9229524,51.7153994 C47.7134053,50.9173544 47.1013142,50.29367 46.3172479,50.0792822 C45.5331816,49.8648944 44.6962585,50.0923737 44.1217393,50.676031 L38.4754112,56.4256054 L32.82429,50.676031 Z" id="Path" fill="#1C1C1C" fill-rule="nonzero"></path>
            </g>
        </g>
    </g>
</svg>