<?xml version="1.0" encoding="UTF-8"?>
<svg width="190px" height="72px" viewBox="0 0 190 72" version="1.1" xmlns="http://www.w3.org/2000/svg" xmlns:xlink="http://www.w3.org/1999/xlink">
    <title>logo-creative-tim-black</title>
    <g id="logo-creative-tim-black" stroke="none" stroke-width="1" fill="none" fill-rule="evenodd">
        <g id="logo-ct-black" transform="translate(6.000000, 8.000000)" fill="#1C1C1C" fill-rule="nonzero">
            <path d="M53.6876964,0 L2.88737871,0 C1.29583319,0 0.00439653458,1.28786308 0,2.87940252 L0,27.095098 C0.00439653458,28.6866374 1.29583319,29.9745066 2.88737871,29.9745005 L13.2564183,29.9745005 L13.2564183,53.7275773 C13.2564183,55.3222325 14.5491418,56.614956 16.143797,56.614956 L40.3754448,56.614956 C41.1404938,56.614956 41.8740925,56.3104995 42.4143151,55.7687805 C42.9545377,55.2270614 43.2569666,54.4926234 43.2548473,53.7275773 L43.2548473,29.9745005 L53.6876964,29.9745005 C55.2792419,29.9745066 56.5706786,28.6866374 56.5750751,27.095098 L56.5750751,2.87940252 C56.5706786,1.28786308 55.2792419,0 53.6876964,0 L53.6876964,0 Z M3.31011648,3.34202121 L26.5925984,3.34202121 L26.5925984,26.6324793 L3.31011648,26.6324793 L3.31011648,3.34202121 Z M39.9128261,53.2649586 L16.622368,53.2649586 L16.622368,29.9745005 L39.9128261,29.9745005 L39.9128261,53.2649586 Z M53.2250777,26.6324793 L29.9425958,26.6324793 L29.9425958,3.34202121 L53.2250777,3.34202121 L53.2250777,26.6324793 Z" id="Shape"></path>
            <path d="M19.1109375,18.8397473 C19.425906,19.1555603 19.8533595,19.3334269 20.299389,19.3342707 C20.9744275,19.3311174 21.5816027,18.9230584 21.8395024,18.2992198 C22.0974022,17.6753812 21.9556182,16.9576966 21.4798643,16.4787967 L16.1358208,11.1267771 C15.8186456,10.8092064 15.3882263,10.6307638 14.9393932,10.6307638 C14.49056,10.6307638 14.0601407,10.8092064 13.7429655,11.1267771 L8.39892205,16.4787967 C7.73815331,17.1395655 7.73815331,18.2108833 8.39892205,18.871652 C9.05969079,19.5324207 10.1310086,19.5324207 10.7917773,18.871652 L14.9553455,14.71606 L19.1109375,18.8397473 Z" id="Path"></path>
            <path d="M37.4242566,18.8397473 L41.5878248,14.6841553 L45.7434168,18.8397473 C46.0583853,19.1555603 46.4858388,19.3334269 46.9318683,19.3342707 C47.6069068,19.3311174 48.214082,18.9230584 48.4719817,18.2992198 C48.7298815,17.6753812 48.5880975,16.9576966 48.1123436,16.4787967 L42.7683001,11.1267771 C42.4511249,10.8092064 42.0207056,10.6307638 41.5718725,10.6307638 C41.1230393,10.6307638 40.69262,10.8092064 40.3754448,11.1267771 L35.0314014,16.4787967 C34.3706326,17.1395655 34.3706326,18.2108833 35.0314014,18.871652 C35.6921701,19.5324207 36.7634879,19.5324207 37.4242566,18.871652 L37.4242566,18.8397473 Z" id="Path"></path>
            <path d="M24.1040289,37.7672326 C23.4432602,37.1064638 22.3719424,37.1064638 21.7111736,37.7672326 C21.0504049,38.4280013 21.0504049,39.4993191 21.7111736,40.1600878 L27.0631933,45.5121075 C27.3793169,45.8316508 27.8101301,46.0114586 28.2596209,46.0114586 C28.7091117,46.0114586 29.139925,45.8316508 29.4560485,45.5121075 L34.800092,40.1600878 C35.4608608,39.4993191 35.4608608,38.4280013 34.800092,37.7672326 C34.1393233,37.1064638 33.0680055,37.1064638 32.4072367,37.7672326 L28.2436685,41.9308008 L24.1040289,37.7672326 Z" id="Path"></path>
            <path d="M71.7457776,22.333316 C70.2976107,21.5589063 69.0914165,20.3996349 68.2601851,18.9833186 C66.5631476,15.9985918 66.5631476,12.3407909 68.2601851,9.35606416 C69.1018926,7.94245714 70.3122886,6.78444724 71.76173,6.00606676 C74.5850303,4.56354684 77.8934746,4.40946288 80.8386277,5.583329 C81.7982314,5.9839637 82.674657,6.56013236 83.4229114,7.28225625 C83.5711481,7.42373496 83.655019,7.6197213 83.655019,7.82463678 C83.655019,8.02955226 83.5711481,8.2255386 83.4229114,8.36701731 L82.3142218,9.40392127 C82.0170913,9.65471104 81.5824245,9.65471104 81.285294,9.40392127 C80.095388,8.31715378 78.5335082,7.72895041 76.9223212,7.7608273 C75.7529312,7.73256773 74.5961221,8.00734424 73.5643476,8.55844573 C72.5929889,9.08379484 71.7887475,9.87145392 71.243278,10.8316583 C70.1372316,12.8969858 70.1372316,15.3785875 71.243278,17.443915 C71.7887475,18.4041194 72.5929889,19.1917784 73.5643476,19.7171275 C74.5961221,20.268229 75.7529312,20.5430055 76.9223212,20.514746 C78.5358341,20.5431076 80.09829,19.9489744 81.285294,18.8556996 C81.5741545,18.5832274 82.0253612,18.5832274 82.3142218,18.8556996 L83.4468399,19.996294 C83.7305665,20.3022231 83.7305665,20.775126 83.4468399,21.0810551 C82.6940809,21.8051346 81.8120532,22.3814288 80.8466039,22.7799823 C79.5482645,23.321181 78.1533861,23.5925581 76.7468451,23.5776007 C75.0011378,23.594844 73.2798737,23.166587 71.7457776,22.333316 L71.7457776,22.333316 Z" id="Path"></path>
            <path d="M94.9485581,10.0101113 L94.9485581,11.4857054 C94.9506279,11.6859328 94.8725768,11.878693 94.7317377,12.0210304 C94.5908986,12.1633678 94.3989751,12.2434542 94.1987363,12.2434429 L94.1987363,12.2434429 C93.0975448,12.1776969 92.0198522,12.5803831 91.2315958,13.3521325 C90.4630776,14.2299434 90.0781478,15.3789875 90.1627871,16.5426062 L90.1627871,22.5327206 C90.1633192,22.9581172 89.8299145,23.3090695 89.4050496,23.330339 L87.6582652,23.330339 C87.2365453,23.3049908 86.9077428,22.9552009 86.9084614,22.5327206 L86.9084614,10.1377302 C86.9063737,9.93750277 86.9844248,9.74474254 87.1252639,9.60240519 C87.2661029,9.46006783 87.4580265,9.37998138 87.6582652,9.37999271 L89.2535021,9.37999271 C89.4537409,9.37998138 89.6456644,9.46006783 89.7865035,9.60240519 C89.9273425,9.74474254 90.0053936,9.93750277 90.0032634,10.1377302 L90.0032634,11.4139197 C90.9485946,10.0578802 92.4978546,9.25047741 94.1508792,9.25237376 C94.3592762,9.23902779 94.5637972,9.31319848 94.7151944,9.45702578 C94.8665915,9.60085308 94.9511461,9.80130423 94.9485581,10.0101113 L94.9485581,10.0101113 Z" id="Path"></path>
            <path d="M110.198962,17.3721294 L99.9974223,17.3721294 C100.167859,18.3340972 100.705566,19.1921408 101.496945,19.7649846 C102.370778,20.3860908 103.42453,20.7027769 104.49599,20.6662935 C105.671796,20.6985956 106.823165,20.3270045 107.75825,19.6134371 C108.082316,19.399468 108.513385,19.4499839 108.779201,19.7330799 L109.57682,20.6423649 C109.85755,20.9278956 109.85755,21.385762 109.57682,21.6712927 C109.028583,22.178881 108.390112,22.5792779 107.69444,22.851768 C105.328025,23.7227673 102.709852,23.5990514 100.436112,22.508792 C99.313018,21.9390638 98.3772501,21.0586667 97.7401622,19.9723654 C97.098044,18.8517817 96.7701341,17.5787197 96.7909962,16.2873683 C96.7739155,15.0096262 97.0929881,13.7498393 97.7162336,12.6342759 C98.3146148,11.56518 99.2019215,10.6861658 100.276589,10.0978493 C101.410845,9.47895324 102.685539,9.1630268 103.977538,9.18058811 C105.244921,9.16148637 106.495514,9.47207321 107.606702,10.0818969 C108.661496,10.6713368 109.527249,11.5481534 110.103248,12.6103473 C110.719851,13.7649857 111.030164,15.0584157 111.004557,16.3671301 C111.004557,16.4389158 111.004557,16.5186776 111.004557,16.6064157 C110.987323,17.0375298 110.630395,17.3767882 110.198962,17.3721294 Z M101.281588,12.7539187 C100.555266,13.3816752 100.0889,14.2575338 99.9734938,15.2105834 L107.853964,15.2105834 C107.748578,14.2656097 107.29675,13.3932123 106.585751,12.7618948 C105.034478,11.5236999 102.832861,11.5236999 101.281588,12.7618948 L101.281588,12.7539187 Z" id="Shape"></path>
            <path d="M124.005737,10.6960631 C125.069228,11.6797925 125.600974,13.1580453 125.600974,15.1308216 L125.600974,22.5247444 C125.601506,22.950141 125.268101,23.3010933 124.843236,23.3223628 L123.247999,23.3223628 C122.82628,23.2970147 122.497477,22.9472247 122.498238,22.5247444 L122.498238,21.5915308 C122.080868,22.2144406 121.486294,22.6978798 120.791335,22.9793869 C119.049575,23.644016 117.121164,23.6269252 115.391458,22.9315298 C114.660992,22.6161754 114.03368,22.1021662 113.580864,21.4479595 C113.15674,20.8104637 112.934391,20.0600347 112.942769,19.2943898 C112.905446,18.1275309 113.423261,17.0120092 114.338602,16.2873683 C115.263839,15.537607 116.731457,15.1627263 118.725503,15.1627263 L122.314786,15.1627263 L122.314786,14.9473693 C122.368733,14.1111075 122.050536,13.2937209 121.445382,12.7140377 C120.711127,12.1339523 119.786472,11.8494432 118.853122,11.9164193 C118.070138,11.9154971 117.292009,12.0393515 116.548005,12.2833238 C116.131602,12.4191224 115.730597,12.5982378 115.351577,12.8177281 C114.981827,13.0160944 114.52161,12.8940671 114.298721,12.5385617 L113.75634,11.5415387 C113.560963,11.192582 113.677393,10.7515622 114.019554,10.5445156 C114.658016,10.1623052 115.344742,9.86722781 116.061457,9.66713535 C117.119732,9.36555095 118.215345,9.21517267 119.315741,9.22046903 C121.008729,9.10739292 122.682479,9.6339979 124.005737,10.6960631 L124.005737,10.6960631 Z M121.038596,20.5306983 C121.659275,20.1734539 122.133847,19.6084868 122.378595,18.9354615 L122.378595,17.3402246 L119.020622,17.3402246 C117.146219,17.3402246 116.213005,17.962367 116.213005,19.1906994 C116.193915,19.7473569 116.458129,20.2757855 116.914909,20.5945078 C117.489685,20.9757324 118.172521,21.160434 118.861098,21.120936 C119.627313,21.1275132 120.380591,20.923328 121.038596,20.5306983 L121.038596,20.5306983 Z" id="Shape"></path>
            <path d="M138.23525,21.9584353 C138.379306,22.3117037 138.235112,22.716819 137.90025,22.8996251 C137.645175,23.0333056 137.378135,23.142792 137.102632,23.2266486 C136.53995,23.3880657 135.95717,23.4686343 135.3718,23.4659342 C134.078581,23.5479839 132.805432,23.1149985 131.830374,22.2615303 C130.944085,21.3257865 130.489963,20.0617662 130.578113,18.7759378 L130.578113,12.0839192 L129.046685,12.0839192 C128.624205,12.0846803 128.274415,11.7558778 128.249067,11.3341579 L128.249067,10.2414206 C128.270337,9.81655572 128.621289,9.48315105 129.046685,9.48368311 L130.578113,9.48368311 L130.578113,7.09082782 C130.599382,6.66596293 130.950335,6.33255826 131.375731,6.33308968 L133.122516,6.33308968 C133.322754,6.33308968 133.514678,6.41316543 133.655517,6.55550279 C133.796356,6.69784015 133.874407,6.89060038 133.872277,7.09082782 L133.872277,9.48368311 L136.839418,9.48368311 C137.041035,9.48152658 137.235024,9.56066672 137.377598,9.70324023 C137.520171,9.84581374 137.599312,10.0398028 137.597155,10.2414206 L137.597155,11.3341579 C137.597166,11.5343966 137.51708,11.7263202 137.374743,11.8671592 C137.232405,12.0079983 137.039645,12.0860494 136.839418,12.0839192 L133.872277,12.0839192 L133.872277,18.696176 C133.833824,19.2561519 134.01072,19.8096677 134.3668,20.2435557 C134.745704,20.6207243 135.269214,20.8155866 135.802514,20.77796 C136.20239,20.78557 136.600133,20.7179268 136.975013,20.5785554 C137.360421,20.4324353 137.791506,20.6248205 137.940131,21.0092694 L138.23525,21.9584353 Z" id="Path"></path>
            <path d="M142.20739,9.37999271 L143.954174,9.37999271 C144.154413,9.37999271 144.346336,9.46006783 144.487175,9.60240519 C144.628014,9.74474254 144.706065,9.93750277 144.703935,10.1377302 L144.703935,22.5247444 C144.704696,22.9472247 144.375894,23.2970147 143.954174,23.3223628 L142.20739,23.3223628 C141.782525,23.3010933 141.44912,22.950141 141.449651,22.5247444 L141.449651,10.1377302 C141.469683,9.72782678 141.797486,9.40002322 142.20739,9.37999271 Z" id="Path"></path>
            <path d="M161.844755,10.4248729 L156.532616,22.811887 C156.406772,23.0843725 156.138615,23.2631437 155.838688,23.2745057 L153.445833,23.2745057 C153.145906,23.2631437 152.87775,23.0843725 152.751905,22.811887 L147.471671,10.4248729 C147.368576,10.1916574 147.391076,9.92203239 147.531398,9.70912954 C147.671721,9.49622669 147.910628,9.36923411 148.165599,9.37197173 L149.904407,9.37197173 C150.204334,9.38337854 150.472491,9.5621498 150.598335,9.83463522 L154.722023,19.6772466 L158.981305,9.82665903 C159.098924,9.55195668 159.368436,9.37332688 159.667257,9.37197173 L161.150827,9.37197173 C161.405798,9.36923411 161.644706,9.49622669 161.785028,9.70912954 C161.92535,9.92203239 161.94785,10.1916574 161.844755,10.4248729 L161.844755,10.4248729 Z" id="Path"></path>
            <path d="M176.552839,17.3721294 L166.399156,17.3721294 C166.566801,18.3331518 167.101699,19.1912766 167.890703,19.7649846 C168.767517,20.3861573 169.823793,20.7027597 170.897724,20.6662935 C172.071283,20.7000096 173.220595,20.3281733 174.152008,19.6134371 C174.476074,19.399468 174.907143,19.4499839 175.172959,19.7330799 L175.970578,20.6423649 C176.232139,20.9416855 176.214642,21.3931158 175.930697,21.6712927 C175.381104,22.1771076 174.742983,22.577285 174.048317,22.851768 C171.681902,23.7227673 169.063729,23.5990514 166.789989,22.508792 C165.665322,21.9413072 164.728984,21.060374 164.094039,19.9723654 C163.449319,18.8528414 163.121221,17.5790488 163.144873,16.2873683 C163.12246,15.0090031 163.441879,13.7478487 164.070111,12.6342759 C164.668492,11.56518 165.555798,10.6861658 166.630466,10.0978493 C167.761832,9.47893186 169.033968,9.16295855 170.323439,9.18058811 C171.593473,9.16046591 172.846898,9.47107331 173.960579,10.0818969 C175.015373,10.6713368 175.881126,11.5481534 176.457125,12.6103473 C177.071294,13.7655991 177.378873,15.059077 177.350457,16.3671301 L177.350457,16.6064157 C177.333324,17.0344208 176.981187,17.3724722 176.552839,17.3721294 Z M167.643441,12.7539187 C166.917767,13.3832571 166.449266,14.2577922 166.327371,15.2105834 L174.215817,15.2105834 C173.999255,13.2241416 172.28004,11.7455467 170.283558,11.8286813 C169.319267,11.7992553 168.378409,12.1289823 167.643441,12.7539187 L167.643441,12.7539187 Z" id="Shape"></path>
            <path d="M74.2343471,36.1959243 L68.9541131,36.1959243 C68.7457162,36.2092702 68.5411951,36.1350995 68.389798,35.9912722 C68.2384008,35.8474449 68.1538462,35.6469938 68.1564343,35.4381868 L68.1564343,34.0822354 C68.1560717,33.8748099 68.2415991,33.6764777 68.3927354,33.5344096 C68.5438717,33.3923415 68.7471102,33.3192337 68.9541131,33.3324741 L82.9044594,33.3324741 C83.1033085,33.3324741 83.2940132,33.4114666 83.4346207,33.5520741 C83.5752282,33.6926816 83.6542632,33.8833864 83.6542632,34.0822354 L83.6542632,35.4381868 C83.6563509,35.6384142 83.5782998,35.8311744 83.4374608,35.9735118 C83.2966217,36.1158491 83.1046982,36.1959356 82.9044594,36.1959243 L77.6162492,36.1959243 L77.6162492,50.8003177 C77.6162492,51.2143994 77.2805696,51.5501215 76.8664879,51.5501215 L74.9920846,51.5501215 C74.7918572,51.5522092 74.5990969,51.4741581 74.4567596,51.333319 C74.3144222,51.19248 74.2343358,51.0005565 74.2343471,50.8003177 L74.2343471,36.1959243 Z" id="Path"></path>
            <path d="M116.659671,39.0194935 C117.680623,40.0298102 118.191099,41.5532614 118.191099,43.5898471 L118.191099,50.7684129 C118.191099,51.1824947 117.855419,51.5181743 117.441337,51.5181743 L115.694553,51.5181743 C115.287535,51.4985055 114.96079,51.1752004 114.936815,50.7684129 L114.936815,44.0046087 C115.013691,43.0234182 114.730101,42.04787 114.139197,41.2608013 C113.548396,40.6175372 112.697556,40.2772013 111.826104,40.3355639 C110.83368,40.293485 109.872341,40.6867602 109.193963,41.4123488 C108.485891,42.2792339 108.132496,43.3821668 108.204916,44.4991321 L108.204916,50.8003177 C108.204916,51.2143994 107.869236,51.5500803 107.455155,51.5500803 L105.700394,51.5500803 C105.293376,51.5304102 104.966631,51.2071052 104.942657,50.8003177 L104.942657,44.0046087 C105.019532,43.0234182 104.735942,42.04787 104.145038,41.2608013 C103.554237,40.6175372 102.703397,40.2772013 101.831945,40.3355639 C100.834928,40.2845193 99.8661032,40.6755509 99.1838515,41.4043726 C98.4809791,42.2764172 98.1334215,43.3817644 98.210757,44.4991321 L98.210757,50.8003177 C98.210757,51.2143994 97.8750775,51.5500803 97.4609957,51.5500803 L95.7142114,51.5500803 C95.291731,51.5508401 94.9419411,51.2220376 94.9165929,50.8003177 L94.9165929,38.4053273 C94.9419411,37.9836074 95.291731,37.6548049 95.7142114,37.655566 L97.3094482,37.655566 C97.7164666,37.6752348 98.0432111,37.9985398 98.0671857,38.4053273 L98.0671857,39.4183027 C98.5898378,38.7908655 99.2579643,38.3007235 100.013375,37.9905657 C100.841093,37.6534124 101.727901,37.4852713 102.621587,37.4960423 C103.576473,37.4767732 104.52314,37.6759278 105.389323,38.0783038 C106.180697,38.458991 106.845388,39.0599824 107.303607,39.8091357 C107.89123,39.0718587 108.64954,38.4887541 109.51301,38.1102085 C110.45736,37.6936613 111.479985,37.4842408 112.512055,37.4960423 C114.043561,37.4231477 115.53947,37.9726065 116.659671,39.0194935 L116.659671,39.0194935 Z" id="Path"></path>
            <rect id="Rectangle" x="141.449652" y="3.33404503" width="3.25428319" height="3.25428319" rx="1.62714159"></rect>
            <path d="M87.6582652,37.6954469 L89.4050496,37.6954469 C89.814953,37.7154774 90.1427566,38.043281 90.1627877,38.4531844 L90.1627877,50.8401986 C90.1633192,51.2655952 89.8299145,51.6165475 89.4050496,51.6378186 L87.6582652,51.6378186 C87.4508397,51.63824 87.2525075,51.5527126 87.1104394,51.4015763 C86.9683713,51.25044 86.8952635,51.0472015 86.9085039,50.8401986 L86.9085039,38.4531844 C86.9281727,38.046166 87.2514778,37.7194215 87.6582652,37.6954469 Z" id="Path"></path>
            <rect id="Rectangle" x="86.9085039" y="31.6494992" width="3.25428319" height="3.25428319" rx="1.62714159"></rect>
        </g>
    </g>
</svg>