<svg width="12" height="12" fill="none" xmlns="http://www.w3.org/2000/svg"><g clip-path="url(#clip0)" fill="#2D3748"><path d="M9.972 3.675a.086.086 0 000-.148L6.691 1.62a1.378 1.378 0 00-1.382 0L2.028 3.527a.086.086 0 000 .148l3.929 2.312a.086.086 0 00.087 0l3.928-2.312zM1.66 4.26a.086.086 0 00-.129.075V8.07a1.031 1.031 0 00.512.889l3.484 2.089a.086.086 0 00.13-.074V6.64a.086.086 0 00-.044-.074L1.66 4.26zM6.344 6.655v4.318a.086.086 0 00.129.075l3.483-2.09a1.031 1.031 0 00.513-.887V4.335a.085.085 0 00-.043-.074.086.086 0 00-.086 0L6.387 6.58a.086.086 0 00-.043.074z"/></g><defs><clipPath id="clip0"><path fill="#fff" transform="translate(.5 .748)" d="M0 0h11v11H0z"/></clipPath></defs></svg>