<svg width="23" height="23" fill="none" xmlns="http://www.w3.org/2000/svg">
    <path d="M11.25 2.109a9.14 9.14 0 100 18.281 9.14 9.14 0 000-18.281z" fill="#fff" stroke="#4FD1C5" stroke-width=".75" stroke-miterlimit="10"/>
    <path d="M11.25 2.109C8.698 2.109 6.3 6.2 6.3 11.249c0 5.048 2.4 9.14 4.951 9.14 2.552 0 4.951-4.092 4.951-9.14 0-5.048-2.399-9.14-4.95-9.14z" fill="#fff" stroke="#4FD1C5" stroke-width=".75" stroke-miterlimit="10"/>
    <path d="M5.156 5.156C6.836 6.349 8.952 7.06 11.25 7.06c2.298 0 4.414-.711 6.094-1.904" fill="#fff"/><path d="M5.156 5.156C6.836 6.349 8.952 7.06 11.25 7.06c2.298 0 4.414-.711 6.094-1.904M17.344 17.344c-1.68-1.193-3.796-1.904-6.094-1.904-2.298 0-4.413.711-6.094 1.904" stroke="#4FD1C5" stroke-width=".75" stroke-linecap="round" stroke-linejoin="round"/>
    <path d="M11.25 2.109v18.28M20.39 11.249H2.11" stroke="#4FD1C5" stroke-width=".75" stroke-miterlimit="10"/>
</svg>