<svg width="23" height="23" fill="none" xmlns="http://www.w3.org/2000/svg">
    <path d="M11.494 4.951a.351.351 0 00-.486 0l-8.09 7.729a.352.352 0 00-.109.254v7.254a1.406 1.406 0 001.405 1.406h4.223a.703.703 0 00.704-.703v-5.976a.351.351 0 01.351-.352h3.516a.351.351 0 01.351.352v5.976a.703.703 0 00.704.703h4.22a1.407 1.407 0 001.407-1.406v-7.254a.35.35 0 00-.108-.254L11.494 4.95z" fill="#fff"/>
    <path d="M21.574 11.23l-3.287-3.144V3.314a.703.703 0 00-.703-.703h-2.11a.703.703 0 00-.703.703V4.72l-2.545-2.434c-.239-.24-.593-.378-.976-.378-.38 0-.734.138-.972.379L.93 11.23a.717.717 0 00-.058.983.703.703 0 001.018.046l9.119-8.713a.352.352 0 01.486 0l9.12 8.713a.703.703 0 00.992-.019c.27-.28.248-.74-.033-1.01z" fill="#fff"/>
</svg>