<svg width="21" height="20" fill="none" xmlns="http://www.w3.org/2000/svg">
    <g clip-path="url(#clip0)">
        <path d="M18.687 0H2.313A1.813 1.813 0 00.5 1.811v16.374C.5 19.188 1.312 20 2.313 20h16.374a1.813 1.813 0 001.813-1.813V1.812A1.813 1.813 0 0018.687 0z" fill="#DC395F"/>
        <path d="M7.184 6.293c.665 0 1.222-.522 1.222-1.204 0-.683-.557-1.204-1.222-1.204-.665 0-1.222.521-1.222 1.204 0 .682.557 1.204 1.222 1.204zM4.65 12.739a4.134 4.134 0 00-.108.905c0 1.06.575 1.764 1.797 1.764 1.013 0 1.834-.602 2.426-1.573l-.361 1.449h2.012l1.15-4.612c.287-1.168.844-1.774 1.689-1.774.665 0 1.078.413 1.078 1.096 0 .197-.018.413-.09.646l-.593 2.12c-.09.306-.126.611-.126.899 0 1.006.593 1.742 1.833 1.742 1.06 0 1.904-.682 2.371-2.317l-.79-.305c-.395 1.095-.737 1.293-1.006 1.293-.27 0-.414-.18-.414-.538 0-.162.037-.342.09-.558l.575-2.065c.144-.485.198-.915.198-1.31 0-1.546-.934-2.352-2.066-2.352-1.06 0-2.138.956-2.677 1.962l.395-1.806H8.962L8.53 8.996h1.438l-.885 3.544c-.695 1.545-1.972 1.57-2.132 1.534-.264-.06-.432-.159-.432-.5 0-.198.036-.482.126-.823l1.348-5.346H4.579l-.431 1.591h1.419L4.65 12.74" fill="#fff"/>
    </g>
    <defs><clipPath id="clip0"><path fill="#fff" transform="translate(.5)" d="M0 0h20v20H0z"/></clipPath></defs>
</svg>