<svg width="13" height="13" fill="none" xmlns="http://www.w3.org/2000/svg">
    <path d="M10.814 8.5l-.114-.14c-.516-.623-.828-1-.828-2.765 0-.914-.218-1.664-.65-2.227-.317-.416-.747-.73-1.313-.964a.07.07 0 01-.02-.015c-.203-.682-.76-1.14-1.389-1.14s-1.186.458-1.39 1.139a.073.073 0 01-.018.015c-1.322.544-1.964 1.588-1.964 3.19 0 1.767-.311 2.144-.827 2.767-.038.045-.076.09-.115.139a.824.824 0 00-.11.881.876.876 0 00.806.494h7.24c.35 0 .655-.189.8-.492a.825.825 0 00-.108-.883zM6.5 11.75a1.876 1.876 0 001.65-.987.094.094 0 00-.082-.138H4.932a.094.094 0 00-.083.138 1.877 1.877 0 001.651.987z" fill="#718096"/>
</svg>