<svg width="23" height="23" fill="none" xmlns="http://www.w3.org/2000/svg">
    <path d="M20.99 2.182a.209.209 0 00-.156-.16c-2.574-.63-8.521 1.613-11.743 4.833a13.93 13.93 0 00-1.566 1.85c-.994-.087-1.987-.014-2.834.355-2.39 1.052-3.085 3.796-3.279 4.976a.424.424 0 00.464.492l3.837-.423c.002.29.02.578.052.866.02.2.108.386.25.527l1.486 1.482a.86.86 0 00.528.25c.286.033.573.05.86.053l-.42 3.832a.424.424 0 00.492.464c1.178-.19 3.927-.885 4.972-3.274.37-.847.445-1.836.36-2.824a13.96 13.96 0 001.855-1.567c3.232-3.216 5.462-9.03 4.842-11.732zm-8.067 7.896a2.11 2.11 0 112.983-2.984 2.11 2.11 0 01-2.983 2.984z" fill="#4FD1C5"/>
    <path d="M7.4 18.054c-.24.241-.627.335-1.092.416-1.044.178-1.967-.725-1.779-1.78.072-.401.283-.962.415-1.094a.192.192 0 00-.16-.328 2.636 2.636 0 00-1.544.753c-1.033 1.034-1.13 4.87-1.13 4.87s3.838-.097 4.872-1.13c.417-.417.682-.961.752-1.546.017-.184-.207-.293-.334-.16z" fill="#4FD1C5"/>
</svg>