<svg width="21" height="21" fill="none" xmlns="http://www.w3.org/2000/svg">
    <g clip-path="url(#clip0)" fill-rule="evenodd" clip-rule="evenodd">
        <path d="M7.832.5c-1.105 0-2 .919-1.999 2.05 0 1.13.895 2.048 2 2.05h2V2.55c.001-1.13-.894-2.048-2-2.05zm0 5.467H2.5c-1.106 0-2.001.918-2 2.05-.002 1.13.894 2.048 2 2.05h5.332c1.106-.001 2.002-.919 2-2.05.002-1.132-.894-2.05-2-2.05z" fill="#36C5F0"/>
        <path d="M20.5 8.016c0-1.13-.895-2.048-2-2.05-1.106.002-2.002.92-2 2.05v2.05h2c1.105 0 2-.918 2-2.05zm-5.334 0V2.55c.001-1.13-.893-2.048-2-2.05-1.105 0-2 .919-2 2.05v5.466c-.001 1.131.894 2.049 2 2.05 1.106 0 2.001-.918 2-2.05z" fill="#2EB67D"/>
        <path d="M13.166 21c1.106 0 2.001-.919 2-2.05.001-1.13-.894-2.048-2-2.05h-2v2.05c-.001 1.13.894 2.048 2 2.05zm0-5.467h5.333c1.106-.001 2.002-.92 2-2.05.002-1.131-.893-2.049-1.999-2.05h-5.333c-1.106 0-2.001.918-2 2.05-.001 1.13.893 2.049 1.999 2.05z" fill="#ECB22E"/>
        <path d="M.5 13.483c-.001 1.13.895 2.049 2 2.05 1.106-.001 2.001-.92 2-2.05v-2.05h-2c-1.105.001-2.001.919-2 2.05zm5.333 0v5.467c-.001 1.13.894 2.048 2 2.05 1.105 0 2-.919 2-2.05v-5.465c.002-1.131-.894-2.05-2-2.05-1.106 0-2 .917-2 2.048z" fill="#E01E5A"/>
    </g>
    <defs><clipPath id="clip0"><path fill="#fff" transform="translate(.5 .5)" d="M0 0h20v20.5H0z"/></clipPath></defs>
</svg>