<svg width="21" height="20" fill="none" xmlns="http://www.w3.org/2000/svg">
    <g clip-path="url(#clip0)">
        <path d="M10.5 0C4.977 0 .5 4.477.5 10s4.477 10 10 10 10-4.477 10-10c0-5.522-4.477-10-10-10zm4.586 14.422a.623.623 0 01-.857.208c-2.348-1.435-5.304-1.76-8.785-.964a.623.623 0 11-.277-1.216c3.808-.87 7.076-.495 9.712 1.115.294.181.387.564.207.857zm1.223-2.722a.78.78 0 01-1.072.257c-2.687-1.652-6.786-2.13-9.965-1.166a.78.78 0 01-.973-.519.781.781 0 01.52-.972c3.632-1.102 8.147-.569 11.233 1.329a.78.78 0 01.258 1.072zm.106-2.835C13.19 6.95 7.875 6.775 4.797 7.708a.935.935 0 11-.543-1.79c3.533-1.072 9.404-.865 13.115 1.338a.935.935 0 01-.954 1.609z" fill="#2EBD59"/>
    </g>
    <defs><clipPath id="clip0"><path fill="#fff" transform="translate(.5)" d="M0 0h20v20H0z"/></clipPath></defs>
</svg>