<?xml version="1.0" encoding="UTF-8"?>
<svg width="100px" height="100px" viewBox="0 0 100 100" version="1.1" xmlns="http://www.w3.org/2000/svg" xmlns:xlink="http://www.w3.org/1999/xlink">
    <title>logo-creative-tim-black</title>
    <g id="logo-creative-tim-black" stroke="none" stroke-width="1" fill="none" fill-rule="evenodd">
        <g id="icon" transform="translate(15.000000, 19.000000)" fill="#1C1C1C" fill-rule="nonzero">
            <path d="M66.4346744,1.49018376e-13 L3.56968951,1.49018376e-13 C1.59820443,1.49018376e-13 -2.98036753e-13,1.59820443 -2.98036753e-13,3.56968951 L-2.98036753e-13,33.5035241 C-2.98036753e-13,35.4750091 1.59820443,37.0732136 3.56968951,37.0732136 L16.4677598,37.0732136 L16.4677598,66.4346744 C16.4666001,67.3810129 16.8417189,68.288989 17.5104719,68.9585615 C18.1792249,69.628134 19.0867408,70.0043639 20.03308,70.0043639 L49.9669146,70.0043639 C51.9383997,70.0043639 53.5366041,68.4061595 53.5366041,66.4346744 L53.5366041,37.0863214 L66.4346744,37.0863214 C67.3810136,37.0863221 68.2885296,36.7100915 68.9572826,36.0405189 C69.6260355,35.3709464 70.0011544,34.4629704 70,33.5166319 L70,3.56968951 C70.0011544,2.62335099 69.6260355,1.71537495 68.9572826,1.04580242 C68.2885296,0.37622988 67.3810136,1.49018376e-13 66.4346744,1.49018376e-13 Z M4.13769396,4.14206323 L32.9311503,4.14206323 L32.9311503,32.9355196 L4.13769396,32.9355196 L4.13769396,4.14206323 Z M49.3989102,65.86667 L20.6054538,65.86667 L20.6054538,37.0863214 L49.3989102,37.0863214 L49.3989102,65.86667 Z M65.8623007,32.9355196 L37.0688443,32.9355196 L37.0688443,4.14206323 L65.8623007,4.14206323 L65.8623007,32.9355196 Z" id="Shape"></path>
            <path d="M23.6988934,23.3056595 C24.5142794,24.0708897 25.7898859,24.0506562 26.5805917,23.2599503 C27.3712976,22.4692445 27.3915311,21.193638 26.6263009,20.378252 L20.015603,13.767554 C19.2050095,12.9645312 17.8987889,12.9645312 17.0881954,13.767554 L10.4600204,20.378252 C9.90907005,20.8953125 9.68342943,21.6713831 9.87125954,22.4032422 C10.0590897,23.1351013 10.6305787,23.7065903 11.3624377,23.8944204 C12.0942968,24.0822505 12.8703675,23.8566099 13.387428,23.3056595 L18.5344222,18.1586654 L23.6988934,23.3056595 Z" id="Path"></path>
            <path d="M46.3185783,23.3056595 L51.4655725,18.1586654 L56.6125667,23.3056595 C57.4279526,24.0708897 58.7035592,24.0506562 59.494265,23.2599503 C60.2849709,22.4692445 60.3052044,21.193638 59.5399742,20.378252 L52.9292763,13.767554 C52.1186828,12.9645312 50.8124622,12.9645312 50.0018687,13.767554 L43.3911708,20.378252 C42.6259406,21.193638 42.6461741,22.4692445 43.43688,23.2599503 C44.2275858,24.0506562 45.5031924,24.0708897 46.3185783,23.3056595 L46.3185783,23.3056595 Z" id="Path"></path>
            <path d="M29.8508185,46.6987044 C29.0342976,45.9346441 27.7586832,45.9567597 26.9691385,46.7486649 C26.1795937,47.54057 26.1612859,48.8162446 26.9277802,49.6304812 L33.5384782,56.2368099 C33.9262423,56.6258256 34.452915,56.8444779 35.002182,56.8444779 C35.5514489,56.8444779 36.0781217,56.6258256 36.4658857,56.2368099 L43.0765837,49.6304812 C43.6002952,49.1075502 43.8052442,48.3449453 43.6142284,47.6299323 C43.4232126,46.9149194 42.8652519,46.3561259 42.1505246,46.1640439 C41.4357974,45.971962 40.6728876,46.1757734 40.1491761,46.6987044 L35.002182,51.8500678 L29.8508185,46.6987044 Z" id="Path"></path>
        </g>
    </g>
</svg>