<svg width="23" height="23" fill="none" xmlns="http://www.w3.org/2000/svg">
    <path d="M20.885 5.547a.703.703 0 00-1.122-.176l-2.7 2.702a.708.708 0 01-.995 0l-1.167-1.169a.702.702 0 010-.994l2.689-2.69a.704.704 0 00-.21-1.138c-2.031-.908-4.566-.435-6.164 1.152-1.358 1.348-1.763 3.455-1.11 5.78a.698.698 0 01-.197.703L2.593 16.4a2.82 2.82 0 103.981 3.983l6.754-7.332a.699.699 0 01.693-.2 7.885 7.885 0 002.03.279c1.469 0 2.757-.475 3.686-1.39 1.72-1.695 1.983-4.57 1.148-6.192zM4.623 19.901a1.407 1.407 0 11-.305-2.797 1.407 1.407 0 01.305 2.797z" fill="black"/>
</svg>