<svg width="23" height="23" fill="none" xmlns="http://www.w3.org/2000/svg">
    <path d="M11.25 0C5.04 0 0 5.04 0 11.25S5.04 22.5 11.25 22.5 22.5 17.46 22.5 11.25 17.46 0 11.25 0zm-.352 17.813a1.172 1.172 0 110-2.344 1.172 1.172 0 010 2.344zm1.96-5.977c-.95.637-1.08 1.222-1.08 1.758a.82.82 0 11-1.641 0c0-1.284.59-2.305 1.806-3.121 1.13-.758 1.768-1.239 1.768-2.295 0-.718-.41-1.264-1.26-1.668-.199-.095-.644-.187-1.191-.18-.687.008-1.22.172-1.63.503-.775.623-.84 1.302-.84 1.312a.821.821 0 11-1.642-.08c.007-.142.106-1.425 1.452-2.507.698-.562 1.585-.854 2.636-.866.745-.01 1.444.117 1.918.34 1.418.672 2.198 1.79 2.198 3.146 0 1.982-1.325 2.872-2.494 3.658z" fill="#4FD1C5"/>
</svg>