<svg width="19" height="24" fill="none" xmlns="http://www.w3.org/2000/svg">
    <path d="M16.179 2.532C15.142 1.357 13.265.854 10.863.854H3.895a.997.997 0 00-.986.834L.007 19.945a.595.595 0 00.591.686H4.9l1.08-6.8-.033.215a.993.993 0 01.983-.834h2.044c4.017 0 7.16-1.619 8.08-6.3.027-.14.07-.406.07-.406.262-1.732-.001-2.907-.945-3.974z" fill="#fff"/>
    <path d="M18.213 7.393c-.998 4.61-4.184 7.048-9.24 7.048H7.142L5.773 23.1h2.973a.87.87 0 00.862-.731l.035-.184.684-4.297.044-.237a.87.87 0 01.86-.731h.544c3.514 0 6.264-1.416 7.068-5.51.322-1.644.166-3.021-.63-4.017z" fill="#fff"/>
</svg>