<svg width="23" height="23" fill="none" xmlns="http://www.w3.org/2000/svg">
    <path d="M4.57 22.297H3.164a1.055 1.055 0 01-1.055-1.054v-6.328a1.055 1.055 0 011.055-1.055H4.57a1.055 1.055 0 011.055 1.055v6.328a1.055 1.055 0 01-1.055 1.054zM14.414 22.296h-1.406a1.055 1.055 0 01-1.055-1.055V10.695a1.055 1.055 0 011.055-1.055h1.406a1.055 1.055 0 011.055 1.055V21.24a1.055 1.055 0 01-1.055 1.055zM19.336 22.297H17.93a1.055 1.055 0 01-1.055-1.055V5.773A1.055 1.055 0 0117.93 4.72h1.406a1.055 1.055 0 011.055 1.054v15.47a1.055 1.055 0 01-1.055 1.054zM9.492 22.297H8.086a1.055 1.055 0 01-1.055-1.055V2.257a1.055 1.055 0 011.055-1.054h1.406a1.055 1.055 0 011.055 1.054v18.985a1.055 1.055 0 01-1.055 1.055z" fill="#4FD1C5"/>
</svg>